<?xml version="1.0" encoding="iso-8859-1"?>
<!-- Uploaded to: SVG Repo, www.svgrepo.com, Generator: SVG Repo Mixer Tools -->
<!DOCTYPE svg PUBLIC "-//W3C//DTD SVG 1.1//EN" "http://www.w3.org/Graphics/SVG/1.1/DTD/svg11.dtd">
<svg fill="#808080" height="800px" width="800px" version="1.1" id="Capa_1" xmlns="http://www.w3.org/2000/svg" xmlns:xlink="http://www.w3.org/1999/xlink" 
	 viewBox="0 0 203.541 203.541" xml:space="preserve">
<path d="M192.061,32.813L146.708,2.758C143.986,0.954,140.848,0,137.634,0c-4.427,0-8.748,1.828-11.856,5.016
	c-3.104,3.184-4.75,7.406-4.636,11.894c0.116,4.541,2.11,8.797,5.429,11.797C55.912,43.436,2.666,106.194,2.666,181.159
	c0,12.342,10.04,22.382,22.382,22.382h0.395c12.342,0,22.382-10.04,22.382-22.382c0-49.404,32.571-91.341,77.367-105.473
	c-1.576,2.64-2.413,5.703-2.333,8.859c0.229,9.012,7.477,16.07,16.502,16.071c3.512,0,6.884-1.119,9.75-3.236l43.771-32.316
	c5.165-3.813,8.151-9.922,7.988-16.34C200.706,42.308,197.413,36.358,192.061,32.813z"/>
</svg>